# xmcd CD Database Entry
#
# Track frame offsets:
# 150
# 11970
# 23885
# 38022
# 50210
# 62622
# 74715
# 87200
# 98110
# 111355
# 124150
# 132915
# 146185
# 158915
# 170922
# 180740
#
# Disc length: 2568 seconds
#
# Revision: 5
# Processed by: cddbd v1.4PL0 Copyright (c) Steve Scherf et al.
# Submitted via: tcd 2.0b
#
DISCID=f20a0610
DTITLE=The Platters - Only You  
DYEAR=1992
DGENRE=Oldies
TTITLE0=Only You
TTITLE1=The Great Pretender
TTITLE2=Harbor Lights
TTITLE3=With This Ring
TTITLE4=My Prayer 
TTITLE5=Smoke Gets In Your Eyes
TTITLE6=Twilight Time
TTITLE7=Red Sails In The Sunset
TTITLE8=I'll Be Home
TTITLE9=If I Had You
TTITLE10=Sweet, Sweet Lovin'
TTITLE11=I'm Sorry
TTITLE12=Pledging My Love
TTITLE13=Heaven On Earth
TTITLE14=Crying In The Chapel
TTITLE15=You'll Never, Never Know
EXTD=YEAR: 1992 ID3G: 11
EXTT0=
EXTT1=
EXTT2=
EXTT3=
EXTT4=
EXTT5=
EXTT6=
EXTT7=
EXTT8=
EXTT9=
EXTT10=
EXTT11=
EXTT12=
EXTT13=
EXTT14=
EXTT15=
PLAYORDER=
